<mxfile host="Electron" modified="2024-11-12T20:45:08.480Z" agent="Mozilla/5.0 (Windows NT 10.0; Win64; x64) AppleWebKit/537.36 (KHTML, like Gecko) draw.io/22.0.2 Chrome/114.0.5735.289 Electron/25.8.4 Safari/537.36" etag="xs87dcEGMvQJQLtzmkzp" version="22.0.2" type="device">
  <diagram name="第 1 页" id="4rrR9U_NRX9ptIsL58qS">
    <mxGraphModel dx="1951" dy="965" grid="1" gridSize="10" guides="1" tooltips="1" connect="1" arrows="1" fold="1" page="1" pageScale="1" pageWidth="827" pageHeight="1169" math="0" shadow="0">
      <root>
        <mxCell id="0" />
        <mxCell id="1" parent="0" />
        <mxCell id="zbhnv8kBsmRh7FldUAzp-4" style="edgeStyle=orthogonalEdgeStyle;rounded=0;orthogonalLoop=1;jettySize=auto;html=1;exitX=0.5;exitY=1;exitDx=0;exitDy=0;entryX=0.5;entryY=0;entryDx=0;entryDy=0;" parent="1" source="zbhnv8kBsmRh7FldUAzp-1" target="zbhnv8kBsmRh7FldUAzp-2" edge="1">
          <mxGeometry relative="1" as="geometry" />
        </mxCell>
        <mxCell id="zbhnv8kBsmRh7FldUAzp-1" value="新建非目标分支（功能点分支）" style="rounded=1;whiteSpace=wrap;html=1;" parent="1" vertex="1">
          <mxGeometry x="679.98" y="50" width="240" height="30" as="geometry" />
        </mxCell>
        <mxCell id="zbhnv8kBsmRh7FldUAzp-5" style="edgeStyle=orthogonalEdgeStyle;rounded=0;orthogonalLoop=1;jettySize=auto;html=1;exitX=0.5;exitY=1;exitDx=0;exitDy=0;entryX=0.5;entryY=0;entryDx=0;entryDy=0;" parent="1" source="zbhnv8kBsmRh7FldUAzp-2" target="zbhnv8kBsmRh7FldUAzp-3" edge="1">
          <mxGeometry relative="1" as="geometry" />
        </mxCell>
        <mxCell id="zbhnv8kBsmRh7FldUAzp-2" value="向非目标分支提交代码" style="rounded=1;whiteSpace=wrap;html=1;" parent="1" vertex="1">
          <mxGeometry x="679.98" y="100" width="240" height="30" as="geometry" />
        </mxCell>
        <mxCell id="zbhnv8kBsmRh7FldUAzp-7" style="edgeStyle=orthogonalEdgeStyle;rounded=0;orthogonalLoop=1;jettySize=auto;html=1;exitX=0.5;exitY=1;exitDx=0;exitDy=0;entryX=0.5;entryY=0;entryDx=0;entryDy=0;" parent="1" source="zbhnv8kBsmRh7FldUAzp-3" target="zbhnv8kBsmRh7FldUAzp-6" edge="1">
          <mxGeometry relative="1" as="geometry" />
        </mxCell>
        <mxCell id="zbhnv8kBsmRh7FldUAzp-3" value="拉取 PR 至目标分支（子系统分支）" style="rounded=1;whiteSpace=wrap;html=1;" parent="1" vertex="1">
          <mxGeometry x="679.98" y="150" width="240" height="30" as="geometry" />
        </mxCell>
        <mxCell id="zbhnv8kBsmRh7FldUAzp-8" style="edgeStyle=orthogonalEdgeStyle;rounded=0;orthogonalLoop=1;jettySize=auto;html=1;exitX=1;exitY=0.5;exitDx=0;exitDy=0;entryX=1;entryY=0.5;entryDx=0;entryDy=0;" parent="1" source="zbhnv8kBsmRh7FldUAzp-6" target="zbhnv8kBsmRh7FldUAzp-2" edge="1">
          <mxGeometry relative="1" as="geometry">
            <Array as="points">
              <mxPoint x="979.98" y="220" />
              <mxPoint x="979.98" y="115" />
            </Array>
          </mxGeometry>
        </mxCell>
        <mxCell id="zbhnv8kBsmRh7FldUAzp-13" style="edgeStyle=orthogonalEdgeStyle;rounded=0;orthogonalLoop=1;jettySize=auto;html=1;exitX=0.5;exitY=1;exitDx=0;exitDy=0;entryX=0.5;entryY=0;entryDx=0;entryDy=0;" parent="1" source="zbhnv8kBsmRh7FldUAzp-6" target="zbhnv8kBsmRh7FldUAzp-12" edge="1">
          <mxGeometry relative="1" as="geometry" />
        </mxCell>
        <mxCell id="zbhnv8kBsmRh7FldUAzp-6" value="PR 审核" style="rhombus;whiteSpace=wrap;html=1;" parent="1" vertex="1">
          <mxGeometry x="719.98" y="200" width="160" height="40" as="geometry" />
        </mxCell>
        <mxCell id="zbhnv8kBsmRh7FldUAzp-9" value="PR 审核通过" style="text;html=1;strokeColor=none;fillColor=none;align=center;verticalAlign=middle;whiteSpace=wrap;rounded=0;" parent="1" vertex="1">
          <mxGeometry x="719.98" y="240" width="80" height="20" as="geometry" />
        </mxCell>
        <mxCell id="zbhnv8kBsmRh7FldUAzp-10" value="PR 审核不通过" style="text;html=1;strokeColor=none;fillColor=none;align=center;verticalAlign=middle;whiteSpace=wrap;rounded=0;" parent="1" vertex="1">
          <mxGeometry x="879.98" y="200" width="100" height="20" as="geometry" />
        </mxCell>
        <mxCell id="zbhnv8kBsmRh7FldUAzp-11" value="迭代" style="text;html=1;strokeColor=none;fillColor=none;align=center;verticalAlign=middle;whiteSpace=wrap;rounded=0;" parent="1" vertex="1">
          <mxGeometry x="919.98" y="90" width="60" height="30" as="geometry" />
        </mxCell>
        <mxCell id="zbhnv8kBsmRh7FldUAzp-15" style="edgeStyle=orthogonalEdgeStyle;rounded=0;orthogonalLoop=1;jettySize=auto;html=1;exitX=0.5;exitY=1;exitDx=0;exitDy=0;entryX=0.5;entryY=0;entryDx=0;entryDy=0;" parent="1" source="zbhnv8kBsmRh7FldUAzp-12" target="zbhnv8kBsmRh7FldUAzp-14" edge="1">
          <mxGeometry relative="1" as="geometry">
            <mxPoint x="800" y="280" as="sourcePoint" />
          </mxGeometry>
        </mxCell>
        <mxCell id="zbhnv8kBsmRh7FldUAzp-12" value="非目标分支合并至目标分支" style="rounded=1;whiteSpace=wrap;html=1;" parent="1" vertex="1">
          <mxGeometry x="680" y="270" width="240" height="30" as="geometry" />
        </mxCell>
        <mxCell id="zbhnv8kBsmRh7FldUAzp-18" style="edgeStyle=orthogonalEdgeStyle;rounded=0;orthogonalLoop=1;jettySize=auto;html=1;exitX=1;exitY=0.5;exitDx=0;exitDy=0;entryX=1;entryY=0.5;entryDx=0;entryDy=0;" parent="1" source="zbhnv8kBsmRh7FldUAzp-14" target="zbhnv8kBsmRh7FldUAzp-2" edge="1">
          <mxGeometry relative="1" as="geometry">
            <mxPoint x="900" y="30" as="targetPoint" />
            <Array as="points">
              <mxPoint x="1080" y="340" />
              <mxPoint x="1080" y="115" />
            </Array>
          </mxGeometry>
        </mxCell>
        <mxCell id="zbhnv8kBsmRh7FldUAzp-56" style="edgeStyle=orthogonalEdgeStyle;rounded=0;orthogonalLoop=1;jettySize=auto;html=1;exitX=0;exitY=0.5;exitDx=0;exitDy=0;entryX=1;entryY=0.5;entryDx=0;entryDy=0;" parent="1" source="zbhnv8kBsmRh7FldUAzp-14" target="zbhnv8kBsmRh7FldUAzp-20" edge="1">
          <mxGeometry relative="1" as="geometry" />
        </mxCell>
        <mxCell id="zbhnv8kBsmRh7FldUAzp-57" style="edgeStyle=orthogonalEdgeStyle;rounded=0;orthogonalLoop=1;jettySize=auto;html=1;exitX=0;exitY=0.5;exitDx=0;exitDy=0;entryX=1;entryY=0.5;entryDx=0;entryDy=0;" parent="1" source="zbhnv8kBsmRh7FldUAzp-14" target="zbhnv8kBsmRh7FldUAzp-24" edge="1">
          <mxGeometry relative="1" as="geometry" />
        </mxCell>
        <mxCell id="zbhnv8kBsmRh7FldUAzp-14" value="自动化编译" style="rhombus;whiteSpace=wrap;html=1;" parent="1" vertex="1">
          <mxGeometry x="720" y="320" width="160" height="40" as="geometry" />
        </mxCell>
        <mxCell id="zbhnv8kBsmRh7FldUAzp-16" value="编译失败" style="text;html=1;strokeColor=none;fillColor=none;align=center;verticalAlign=middle;whiteSpace=wrap;rounded=0;" parent="1" vertex="1">
          <mxGeometry x="880" y="320" width="100" height="20" as="geometry" />
        </mxCell>
        <mxCell id="zbhnv8kBsmRh7FldUAzp-20" value="目标分支（子系统分支）合并至主分支（集成分支）" style="rounded=1;whiteSpace=wrap;html=1;" parent="1" vertex="1">
          <mxGeometry x="220" y="275" width="300" height="30" as="geometry" />
        </mxCell>
        <mxCell id="zbhnv8kBsmRh7FldUAzp-22" value="编译成功" style="text;html=1;strokeColor=none;fillColor=none;align=center;verticalAlign=middle;whiteSpace=wrap;rounded=0;" parent="1" vertex="1">
          <mxGeometry x="620" y="320" width="100" height="20" as="geometry" />
        </mxCell>
        <mxCell id="zbhnv8kBsmRh7FldUAzp-34" style="edgeStyle=orthogonalEdgeStyle;rounded=0;orthogonalLoop=1;jettySize=auto;html=1;exitX=0.5;exitY=1;exitDx=0;exitDy=0;entryX=0.5;entryY=0;entryDx=0;entryDy=0;" parent="1" source="zbhnv8kBsmRh7FldUAzp-23" target="zbhnv8kBsmRh7FldUAzp-33" edge="1">
          <mxGeometry relative="1" as="geometry" />
        </mxCell>
        <mxCell id="zbhnv8kBsmRh7FldUAzp-23" value="服务器端定时通过 Docker Compose 获取最新版本镜像" style="rounded=1;whiteSpace=wrap;html=1;" parent="1" vertex="1">
          <mxGeometry x="640" y="380" width="320" height="30" as="geometry" />
        </mxCell>
        <mxCell id="zbhnv8kBsmRh7FldUAzp-24" value="发布 Docker 镜像至 Docker Hub" style="rounded=1;whiteSpace=wrap;html=1;" parent="1" vertex="1">
          <mxGeometry x="220" y="325" width="300" height="30" as="geometry" />
        </mxCell>
        <mxCell id="zbhnv8kBsmRh7FldUAzp-31" style="edgeStyle=orthogonalEdgeStyle;rounded=0;orthogonalLoop=1;jettySize=auto;html=1;exitX=1;exitY=0.5;exitDx=0;exitDy=0;entryX=1;entryY=0.5;entryDx=0;entryDy=0;" parent="1" source="zbhnv8kBsmRh7FldUAzp-30" target="zbhnv8kBsmRh7FldUAzp-2" edge="1">
          <mxGeometry relative="1" as="geometry">
            <Array as="points">
              <mxPoint x="1180" y="500" />
              <mxPoint x="1180" y="115" />
            </Array>
          </mxGeometry>
        </mxCell>
        <mxCell id="zbhnv8kBsmRh7FldUAzp-48" style="edgeStyle=orthogonalEdgeStyle;rounded=0;orthogonalLoop=1;jettySize=auto;html=1;exitX=0.5;exitY=1;exitDx=0;exitDy=0;entryX=0.5;entryY=0;entryDx=0;entryDy=0;" parent="1" source="zbhnv8kBsmRh7FldUAzp-30" target="zbhnv8kBsmRh7FldUAzp-36" edge="1">
          <mxGeometry relative="1" as="geometry" />
        </mxCell>
        <mxCell id="zbhnv8kBsmRh7FldUAzp-30" value="生产环境测试" style="rhombus;whiteSpace=wrap;html=1;" parent="1" vertex="1">
          <mxGeometry x="720" y="480" width="160" height="40" as="geometry" />
        </mxCell>
        <mxCell id="zbhnv8kBsmRh7FldUAzp-32" value="测试不通过" style="text;html=1;strokeColor=none;fillColor=none;align=center;verticalAlign=middle;whiteSpace=wrap;rounded=0;" parent="1" vertex="1">
          <mxGeometry x="880" y="480" width="100" height="20" as="geometry" />
        </mxCell>
        <mxCell id="zbhnv8kBsmRh7FldUAzp-35" style="edgeStyle=orthogonalEdgeStyle;rounded=0;orthogonalLoop=1;jettySize=auto;html=1;exitX=0.5;exitY=1;exitDx=0;exitDy=0;entryX=0.5;entryY=0;entryDx=0;entryDy=0;" parent="1" source="zbhnv8kBsmRh7FldUAzp-33" target="zbhnv8kBsmRh7FldUAzp-30" edge="1">
          <mxGeometry relative="1" as="geometry" />
        </mxCell>
        <mxCell id="zbhnv8kBsmRh7FldUAzp-33" value="服务器端通过 Docker Compose 部署最新版本镜像" style="rounded=1;whiteSpace=wrap;html=1;" parent="1" vertex="1">
          <mxGeometry x="640" y="430" width="320" height="30" as="geometry" />
        </mxCell>
        <mxCell id="zbhnv8kBsmRh7FldUAzp-36" value="功能点上线（本功能点分支开发结束）" style="rounded=1;whiteSpace=wrap;html=1;" parent="1" vertex="1">
          <mxGeometry x="640" y="540" width="320" height="30" as="geometry" />
        </mxCell>
        <mxCell id="zbhnv8kBsmRh7FldUAzp-38" value="测试通过" style="text;html=1;strokeColor=none;fillColor=none;align=center;verticalAlign=middle;whiteSpace=wrap;rounded=0;" parent="1" vertex="1">
          <mxGeometry x="730" y="520" width="70" height="20" as="geometry" />
        </mxCell>
        <mxCell id="zbhnv8kBsmRh7FldUAzp-40" value="" style="endArrow=none;dashed=1;html=1;rounded=0;" parent="1" edge="1">
          <mxGeometry width="50" height="50" relative="1" as="geometry">
            <mxPoint x="40" y="40" as="sourcePoint" />
            <mxPoint x="1220" y="40" as="targetPoint" />
          </mxGeometry>
        </mxCell>
        <mxCell id="zbhnv8kBsmRh7FldUAzp-41" value="" style="endArrow=none;dashed=1;html=1;rounded=0;" parent="1" edge="1">
          <mxGeometry width="50" height="50" relative="1" as="geometry">
            <mxPoint x="40" y="260" as="sourcePoint" />
            <mxPoint x="1220" y="260" as="targetPoint" />
          </mxGeometry>
        </mxCell>
        <mxCell id="zbhnv8kBsmRh7FldUAzp-42" value="" style="endArrow=none;dashed=1;html=1;rounded=0;" parent="1" edge="1">
          <mxGeometry width="50" height="50" relative="1" as="geometry">
            <mxPoint x="40" y="370" as="sourcePoint" />
            <mxPoint x="1220" y="370" as="targetPoint" />
          </mxGeometry>
        </mxCell>
        <mxCell id="zbhnv8kBsmRh7FldUAzp-43" value="" style="endArrow=none;dashed=1;html=1;rounded=0;" parent="1" edge="1">
          <mxGeometry width="50" height="50" relative="1" as="geometry">
            <mxPoint x="40" y="470" as="sourcePoint" />
            <mxPoint x="1220" y="470" as="targetPoint" />
          </mxGeometry>
        </mxCell>
        <mxCell id="zbhnv8kBsmRh7FldUAzp-47" value="" style="html=1;verticalAlign=bottom;endArrow=open;dashed=1;endSize=8;curved=0;rounded=0;exitX=0.5;exitY=1;exitDx=0;exitDy=0;entryX=0.5;entryY=0;entryDx=0;entryDy=0;" parent="1" source="zbhnv8kBsmRh7FldUAzp-14" target="zbhnv8kBsmRh7FldUAzp-23" edge="1">
          <mxGeometry relative="1" as="geometry">
            <mxPoint x="850" y="400" as="sourcePoint" />
            <mxPoint x="770" y="400" as="targetPoint" />
          </mxGeometry>
        </mxCell>
        <mxCell id="zbhnv8kBsmRh7FldUAzp-49" value="" style="endArrow=none;dashed=1;html=1;rounded=0;" parent="1" edge="1">
          <mxGeometry width="50" height="50" relative="1" as="geometry">
            <mxPoint x="40" y="580" as="sourcePoint" />
            <mxPoint x="1220" y="580" as="targetPoint" />
          </mxGeometry>
        </mxCell>
        <mxCell id="zbhnv8kBsmRh7FldUAzp-50" value="&lt;font style=&quot;font-size: 18px;&quot;&gt;&lt;span&gt;集成&lt;br&gt;&lt;br&gt;Integration&lt;/span&gt;&lt;/font&gt;" style="text;html=1;strokeColor=none;fillColor=none;align=center;verticalAlign=middle;whiteSpace=wrap;rounded=0;fontStyle=1" parent="1" vertex="1">
          <mxGeometry x="60" y="260" width="120" height="110" as="geometry" />
        </mxCell>
        <mxCell id="zbhnv8kBsmRh7FldUAzp-51" value="&lt;font style=&quot;font-size: 18px;&quot;&gt;&lt;span&gt;部署&lt;br&gt;&lt;br&gt;Deployment&lt;/span&gt;&lt;/font&gt;" style="text;html=1;strokeColor=none;fillColor=none;align=center;verticalAlign=middle;whiteSpace=wrap;rounded=0;fontStyle=1" parent="1" vertex="1">
          <mxGeometry x="60" y="370" width="120" height="100" as="geometry" />
        </mxCell>
        <mxCell id="zbhnv8kBsmRh7FldUAzp-52" value="&lt;font style=&quot;font-size: 18px;&quot;&gt;&lt;span&gt;测试&lt;br&gt;&lt;br&gt;Testing&lt;/span&gt;&lt;/font&gt;" style="text;html=1;strokeColor=none;fillColor=none;align=center;verticalAlign=middle;whiteSpace=wrap;rounded=0;fontStyle=1" parent="1" vertex="1">
          <mxGeometry x="60" y="470" width="120" height="110" as="geometry" />
        </mxCell>
        <mxCell id="zbhnv8kBsmRh7FldUAzp-53" value="&lt;font style=&quot;font-size: 18px;&quot;&gt;&lt;span&gt;开发&lt;br&gt;&lt;br&gt;Development&lt;/span&gt;&lt;/font&gt;" style="text;html=1;strokeColor=none;fillColor=none;align=center;verticalAlign=middle;whiteSpace=wrap;rounded=0;fontStyle=1" parent="1" vertex="1">
          <mxGeometry x="60" y="40" width="120" height="220" as="geometry" />
        </mxCell>
      </root>
    </mxGraphModel>
  </diagram>
</mxfile>
